<svg viewBox="0 0 100 100" xmlns="http://www.w3.org/2000/svg">
  <defs>
    <linearGradient id="bg" x1="0%" y1="0%" x2="100%" y2="100%">
      <stop offset="0%" stop-color="#0a192f" />
      <stop offset="100%" stop-color="#112240" />
    </linearGradient>
    <linearGradient id="accent" x1="0%" y1="0%" x2="100%" y2="100%">
      <stop offset="0%" stop-color="#64ffda" />
      <stop offset="100%" stop-color="#00b4d8" />
    </linearGradient>
    <filter id="glow" x="-20%" y="-20%" width="140%" height="140%">
      <feGaussianBlur stdDeviation="3" result="blur" />
      <feComposite in="SourceGraphic" in2="blur" operator="over" />
    </filter>
  </defs>
  
  <rect x="0" y="0" width="100" height="100" rx="24" fill="url(#bg)" />
  <rect x="2" y="2" width="96" height="96" rx="22" fill="none" stroke="url(#accent)" stroke-width="2" opacity="0.5"/>
  
  <!-- Sleek tech automotive shape -->
  <g transform="translate(15, 28) scale(0.7)" filter="url(#glow)">
    <path d="M85.4,32.4L71.8,11.5C69.3,7.6,65,5,60.3,5H39.7c-4.7,0-9,2.6-11.4,6.5L14.6,32.4c-4.2,1.4-8.1,3.4-11.6,6  l10.9,4.4c2.8-2.6,6.5-4.2,10.6-4.2h51c4.1,0,7.9,1.6,10.7,4.2l10.9-4.5C93.5,35.8,89.5,33.8,85.4,32.4z" fill="url(#accent)"/>
    <path d="M83,43H17c-8.8,0-16,7.2-16,16v20c0,2.2,1.8,4,4,4h5c2.2,0,4-1.8,4-4v-4h72v4c0,2.2,1.8,4,4,4h5c2.2,0,4-1.8,4-4  V59C99,50.2,91.8,43,83,43z M20,68c-3.9,0-7-3.1-7-7s3.1-7,7-7s7,3.1,7,7S23.9,68,20,68z M80,68c-3.9,0-7-3.1-7-7s3.1-7,7-7  s7,3.1,7,7S83.9,68,80,68z" fill="url(#accent)"/>
    
    <!-- Neon tech lines across the car -->
    <path d="M30,30 L70,30" stroke="#0a192f" stroke-width="4" stroke-linecap="round"/>
    <path d="M40,50 L60,50" stroke="#0a192f" stroke-width="4" stroke-linecap="round"/>
  </g>
</svg>